<svg width="32" height="32" viewBox="0 0 32 32" fill="none" xmlns="http://www.w3.org/2000/svg">
<g clip-path="url(#clip0_10098:206130)">
<path d="M15.6059 20.7618C13.3309 20.7169 12.3496 20.0185 12.3496 18.9328C12.3496 18.2489 12.8108 17.9813 13.3758 17.9813C14.0597 17.9813 14.4614 18.2192 14.5652 19.394C14.6095 19.9742 14.7733 20.1823 15.6059 20.2266V16.4945C13.2866 15.617 12.5875 14.5763 12.5875 13.1787C12.5875 11.5281 13.8813 10.3241 15.7698 10.1603V9.1936H16.4094V10.1306C18.6395 10.1755 19.4727 11.0378 19.4727 11.8849C19.4727 12.4651 19.0267 12.8516 18.432 12.8516C17.614 12.8516 17.3166 12.4499 17.2129 11.3794C17.1534 10.8739 16.9895 10.6955 16.41 10.6658V14.1454C18.878 15.1267 19.6518 16.0485 19.6518 17.6396C19.6518 19.2156 18.3282 20.6132 16.2613 20.7618V22.234H15.6071V20.7618H15.6059ZM15.7692 13.8778V10.6664C14.9214 10.7854 14.4311 11.3801 14.4311 12.1683C14.4311 12.9409 14.7436 13.3869 15.7692 13.8778ZM16.2601 16.7621V20.212C17.1522 20.1083 17.6431 19.4984 17.6431 18.5614C17.6431 17.8029 17.2711 17.2233 16.2601 16.7621Z" fill="url(#paint0_linear_10098:206130)"/>
<path d="M6.12737 22.7773C5.95684 22.7773 5.78753 22.7124 5.65767 22.5825C0.356298 17.2799 0.356298 8.65184 5.65767 3.34986C5.9174 3.09074 6.33794 3.09074 6.59585 3.34986C6.85497 3.60898 6.85497 4.02892 6.59585 4.28743C1.8109 9.07238 1.8109 16.8594 6.59585 21.6449C6.85497 21.9035 6.85497 22.3234 6.59585 22.5825C6.4672 22.7124 6.29667 22.7773 6.12737 22.7773Z" fill="url(#paint1_linear_10098:206130)"/>
<path d="M13.3281 29.6405C9.69614 29.6405 6.27962 28.2259 3.71146 25.6572C3.45295 25.3987 3.45295 24.9793 3.71146 24.7202C3.97119 24.4611 4.39113 24.4611 4.64843 24.7202C6.96778 27.0383 10.0499 28.3139 13.3281 28.3139C16.6063 28.3139 19.6872 27.0377 22.0072 24.7202C22.2657 24.4611 22.6856 24.4611 22.9441 24.7202C23.2038 24.9793 23.2038 25.3987 22.9441 25.6572C20.3753 28.2259 16.9613 29.6405 13.3281 29.6405Z" fill="url(#paint2_linear_10098:206130)"/>
<path d="M25.2854 28.089C25.1167 28.089 24.9468 28.0234 24.8169 27.8948C24.5584 27.6356 24.5584 27.2163 24.8169 26.9566C27.1357 24.6384 28.4125 21.5563 28.4125 18.2781C28.4125 15 27.1357 11.9178 24.8169 9.59969C24.5584 9.34117 24.5584 8.92063 24.8169 8.66211C25.0754 8.40299 25.4966 8.40299 25.7551 8.66211C28.3233 11.2309 29.739 14.6462 29.739 18.2787C29.739 21.9113 28.3239 25.3266 25.7551 27.8954C25.6252 28.0234 25.4553 28.089 25.2854 28.089Z" fill="url(#paint3_linear_10098:206130)"/>
<path d="M29.8761 9.11124C29.6643 9.11124 29.4573 9.0105 29.3281 8.82238C27.4772 6.11586 24.6845 4.2917 21.4634 3.68546C18.2423 3.07983 14.9775 3.76496 12.2704 5.61522C11.9675 5.82154 11.5555 5.74448 11.3486 5.44166C11.141 5.13945 11.2193 4.7268 11.5221 4.52047C14.5211 2.47056 18.1385 1.7114 21.7086 2.38257C25.2792 3.05374 28.3735 5.07452 30.4234 8.07353C30.6304 8.37635 30.5521 8.789 30.2505 8.99533C30.1358 9.07422 30.0059 9.11124 29.8761 9.11124Z" fill="url(#paint4_linear_10098:206130)"/>
<path d="M4.23298 14.2626C3.86767 14.2626 3.57031 13.9659 3.57031 13.5993C3.57031 6.10058 9.6703 0 17.1697 0C17.535 0 17.8329 0.295532 17.8329 0.662672C17.8329 1.0292 17.535 1.32595 17.1697 1.32595C10.4021 1.32595 4.89626 6.83183 4.89626 13.5993C4.89626 13.9659 4.59891 14.2626 4.23298 14.2626Z" fill="url(#paint5_linear_10098:206130)"/>
<path d="M13.5993 27.6042C9.96677 27.6042 6.55207 26.189 3.9827 23.6202C1.41455 21.0521 0 17.6362 0 14.0048C0 13.6377 0.296746 13.3416 0.663278 13.3416C1.02981 13.3416 1.32656 13.6383 1.32656 14.0048C1.32656 17.283 2.60335 20.3651 4.92088 22.6833C7.23963 25.002 10.3218 26.2782 13.5999 26.2782C13.9665 26.2782 14.2632 26.575 14.2632 26.9415C14.2632 27.3068 13.9665 27.6042 13.5993 27.6042Z" fill="url(#paint6_linear_10098:206130)"/>
<path d="M14.2193 31.4283C13.8528 31.4283 13.5566 31.1315 13.5566 30.765C13.5566 30.3991 13.8528 30.1023 14.2193 30.1023C20.9868 30.1023 26.4933 24.5958 26.4933 17.8283C26.4933 17.4618 26.7901 17.165 27.1566 17.165C27.5231 17.165 27.8199 17.4624 27.8199 17.8283C27.8193 25.3271 21.7187 31.4283 14.2193 31.4283Z" fill="url(#paint7_linear_10098:206130)"/>
<path d="M31.1144 20.6042C31.0737 20.6042 31.0325 20.6006 30.9906 20.5921C30.6307 20.5247 30.3947 20.1776 30.462 19.8177C31.7127 13.1668 27.3168 6.73849 20.6664 5.48779C20.3071 5.42043 20.0711 5.07331 20.1384 4.71346C20.2064 4.3536 20.5547 4.11633 20.9128 4.1849C28.2829 5.57032 33.1509 12.6934 31.7649 20.0623C31.7042 20.3815 31.4263 20.6042 31.1144 20.6042Z" fill="url(#paint8_linear_10098:206130)"/>
</g>
<defs>
<linearGradient id="paint0_linear_10098:206130" x1="15.9999" y1="22.2342" x2="15.9999" y2="9.19391" gradientUnits="userSpaceOnUse">
<stop offset="0.005618" stop-color="#F12102"/>
<stop offset="0.0417" stop-color="#F22802"/>
<stop offset="0.3683" stop-color="#F76101"/>
<stop offset="0.6483" stop-color="#FC8A00"/>
<stop offset="0.8679" stop-color="#FEA400"/>
<stop offset="1" stop-color="#FFAD00"/>
</linearGradient>
<linearGradient id="paint1_linear_10098:206130" x1="4.23614" y1="22.0128" x2="4.23614" y2="3.16839" gradientUnits="userSpaceOnUse">
<stop stop-color="#F12102"/>
<stop offset="1" stop-color="#FF7400"/>
</linearGradient>
<linearGradient id="paint2_linear_10098:206130" x1="3.5174" y1="27.0828" x2="23.1386" y2="27.0828" gradientUnits="userSpaceOnUse">
<stop stop-color="#FF7400"/>
<stop offset="1" stop-color="#F12102"/>
</linearGradient>
<linearGradient id="paint3_linear_10098:206130" x1="27.0076" y1="9.23368" x2="27.241" y2="27.5141" gradientUnits="userSpaceOnUse">
<stop stop-color="#F12102"/>
<stop offset="1" stop-color="#FF7400"/>
</linearGradient>
<linearGradient id="paint4_linear_10098:206130" x1="11.2327" y1="5.62777" x2="30.5391" y2="5.62777" gradientUnits="userSpaceOnUse">
<stop stop-color="#F12102"/>
<stop offset="1" stop-color="#FF7400"/>
</linearGradient>
<linearGradient id="paint5_linear_10098:206130" x1="4.02762" y1="11.637" x2="15.7738" y2="-0.809315" gradientUnits="userSpaceOnUse">
<stop stop-color="#FF7400"/>
<stop offset="1" stop-color="#FFAD00"/>
</linearGradient>
<linearGradient id="paint6_linear_10098:206130" x1="0" y1="20.4726" x2="14.2629" y2="20.4726" gradientUnits="userSpaceOnUse">
<stop stop-color="#FFAD00"/>
<stop offset="1" stop-color="#FF7400"/>
</linearGradient>
<linearGradient id="paint7_linear_10098:206130" x1="13.557" y1="24.2965" x2="27.8199" y2="24.2965" gradientUnits="userSpaceOnUse">
<stop stop-color="#FFAD00"/>
<stop offset="1" stop-color="#FF7400"/>
</linearGradient>
<linearGradient id="paint8_linear_10098:206130" x1="20.1265" y1="12.3888" x2="31.9999" y2="12.3888" gradientUnits="userSpaceOnUse">
<stop stop-color="#FF7400"/>
<stop offset="1" stop-color="#FFAD00"/>
</linearGradient>
<clipPath id="clip0_10098:206130">
<rect width="32" height="31.4284" fill="white"/>
</clipPath>
</defs>
</svg>
